<?xml version="1.0" encoding="utf-8"?>
<!DOCTYPE svg PUBLIC "-//W3C//DTD SVG 1.1//EN" "http://www.w3.org/Graphics/SVG/1.1/DTD/svg11.dtd">
<svg version="1.1" xmlns="http://www.w3.org/2000/svg" xmlns:xlink="http://www.w3.org/1999/xlink" x="0px" y="0px" width="65" height="65"><g transform="translate(32.5,32.5)"><g><path class="progress" d="M1.3322676295501878e-15,-7.416198487095664A3,3 0 0,1 4.125000000000002,-10.197272919756537A11,11 0 0,1 10.486507782584694,3.321619262617353A3,3 0 0,1 5.7142791453609805,4.727262828412715L5.7142791453609805,4.727262828412715A3,3 0 0,1 4.766594446629407,1.5098269375533422A5,5 0 0,0 1.8750000000000009,-4.63512405443479A3,3 0 0,1 1.3322676295501878e-15,-7.416198487095664Z" style="fill: rgb(26, 213, 222);"></path><path class="bg" d="M0,11A11,11 0 1,1 0,-11A11,11 0 1,1 0,11M0,5A5,5 0 1,0 0,-5A5,5 0 1,0 0,5Z" style="fill: rgb(26, 213, 222); opacity: 0.2;"></path><text class="rbc-label rbc-label-start" dominant-baseline="central" x="10" y="-8"></text></g><g><path class="progress" d="M0,-14.696938456699067A3,3 0 0,1 3.6,-17.636326148038883A18,18 0 1,1 -15.66068172684917,8.873727956745824A3,3 0 0,1 -13.977619088832485,4.541603748402727L-13.977619088832485,4.541603748402727A3,3 0 0,1 -10.440454484566114,5.91581863783055A12,12 0 1,0 2.4,-11.757550765359253A3,3 0 0,1 0,-14.696938456699067Z" style="fill: rgb(160, 255, 3);"></path><path class="bg" d="M0,18A18,18 0 1,1 0,-18A18,18 0 1,1 0,18M0,12A12,12 0 1,0 0,-12A12,12 0 1,0 0,12Z" style="fill: rgb(160, 255, 3); opacity: 0.2;"></path><text class="rbc-label rbc-label-start" dominant-baseline="central" x="10" y="-15"></text></g><g><path class="progress"  d="M0,-21.79449471770337A3,3 0 0,1 3.409090909090909,-24.766471270117464A25,25 0 0,1 6.4862711372879,24.14390785961514A3,3 0 0,1 2.731574496869918,21.622638617154237L2.731574496869918,21.622638617154237A3,3 0 0,1 4.929566064338804,18.349369973307507A19,19 0 0,0 2.590909090909091,-18.82251816528927A3,3 0 0,1 0,-21.79449471770337Z" style="fill: rgb(233, 11, 58);"></path><path class="bg" d="M0,25A25,25 0 1,1 0,-25A25,25 0 1,1 0,25M0,19A19,19 0 1,0 0,-19A19,19 0 1,0 0,19Z" style="fill: rgb(233, 11, 58); opacity: 0.2;"></path><text class="rbc-label rbc-label-start" dominant-baseline="central" x="10" y="-22"></text></g></g></svg>